<svg width="115" height="114" viewBox="0 0 115 114" fill="none" xmlns="http://www.w3.org/2000/svg">
<path d="M45.7216 5.5C36.7024 8.67764 31.88 14.5986 33.2216 26.5C34.5632 38.4014 57.5 57 57.5 57C57.5 57 66.1176 49.604 74.2216 41.5C79.7216 36 84.9057 23.9381 81.7216 16.5C79.6018 11.5481 71.2216 5.5 71.2216 5.5C72.034 24.8754 67.7216 31.5 57.2216 43C47.9866 32.2342 44.0238 23.4798 45.7216 5.5Z" fill="#D99202"/>
<circle cx="58.7216" cy="8" r="8" fill="#D99202"/>
<path d="M5.5 68.9735C8.67764 77.9927 14.5986 82.8151 26.5 81.4735C38.4014 80.132 57.5 57 57.5 57C57.5 57 49.604 48.5775 41.5 40.4735C36 34.9735 23.9381 29.7894 16.5 32.9735C11.5481 35.0934 5.5 43.4735 5.5 43.4735C24.8754 42.6611 31.5 46.9735 43 57.4735C32.2342 66.7086 23.4798 70.6714 5.5 68.9735Z" fill="#45B606"/>
<circle cx="8" cy="55.9735" r="8" transform="rotate(-90 8 55.9735)" fill="#45B606"/>
<path d="M68.9735 108.5C77.9927 105.322 82.8151 99.4014 81.4735 87.5C80.132 75.5986 57.4735 57 57.4735 57C57.4735 57 48.5775 64.396 40.4735 72.5C34.9735 78 29.7894 90.0619 32.9735 97.5C35.0934 102.452 43.4735 108.5 43.4735 108.5C42.6611 89.1246 46.9735 82.5 57.4735 71C66.7086 81.7658 70.6714 90.5202 68.9735 108.5Z" fill="#A22954"/>
<circle cx="55.9735" cy="106" r="8" transform="rotate(180 55.9735 106)" fill="#A22954"/>
<path d="M109.5 45.7216C106.322 36.7024 100.586 32.4723 89 34.5C77.4137 36.5277 57.1415 57.4534 57.5 57C57.4757 57.0752 68.2411 67.6942 76 76C81.3097 81.6839 91.0619 84.9057 98.5 81.7216C103.452 79.6018 109.5 71.2216 109.5 71.2216C90.1246 72.034 83.5 67.7216 72 57.2216C82.7658 47.9866 91.5202 44.0238 109.5 45.7216Z" fill="#1E9DBF"/>
<circle cx="107" cy="58.7216" r="8" transform="rotate(90 107 58.7216)" fill="#1E9DBF"/>
</svg>
